<svg width="564" height="381" viewBox="0 0 564 381" fill="none" xmlns="http://www.w3.org/2000/svg">
<g clip-path="url(#clip0_643_1325)">
<path d="M37.9558 287.104C35.2777 287.104 32.594 287.215 29.9732 287.437L29.5918 287.47C12.208 289.005 -0.50739 297.91 0.0155601 308.186L0.116658 310.043C0.183328 311.218 0.254361 312.481 0.312829 313.882C0.344497 314.572 1.28826 315.103 2.46259 315.103H430.061C460.209 314.92 490.248 314.69 519.338 314.419C524.793 314.43 530.246 314.148 535.671 313.573C543.755 312.618 549.366 310.723 552.827 307.781H552.828C557.13 304.134 557.266 299.54 557.006 294.351C556.476 283.872 555.95 272.863 555.426 261.888C554.962 252.215 554.501 242.568 554.04 233.332C553.754 227.851 553.121 223.013 548.234 219.316C542.938 215.317 533.279 213.29 519.525 213.29C519.358 213.29 519.193 213.29 519.025 213.291C475.921 213.444 433.211 228.249 412.749 250.131C410.392 252.651 408.197 255.349 406.073 257.958C402.935 261.813 399.692 265.798 395.821 269.362C393.725 271.317 391.458 273.082 389.048 274.635C388.882 274.75 388.692 274.873 388.491 274.989C388.03 275.289 387.55 275.578 387.081 275.835C384.335 277.419 381.443 278.732 378.443 279.757L378.141 279.859C377.913 279.94 377.666 280.022 377.419 280.096C375.687 280.651 373.887 281.132 372.084 281.52C364.284 283.237 355.415 283.649 345.723 282.743C336.823 281.888 328.038 280.1 319.513 277.407C310.538 274.574 302.138 271.042 294.015 267.626C290.446 266.125 286.756 264.573 283.07 263.103C282.377 262.826 281.695 262.556 281.004 262.286C276.502 260.533 272.421 259.086 268.526 257.861C258.879 254.814 248.893 252.966 238.793 252.359C228.072 251.773 218.625 252.879 210.72 255.638C208.541 256.396 206.419 257.31 204.371 258.371C195.008 263.228 189.235 270.396 183.654 277.328C176.711 285.951 169.531 294.868 155.354 299.49C138.995 304.828 115.116 302.611 98.2215 298.754C92.9099 297.541 87.6049 296.146 82.4743 294.796C80.4021 294.25 78.3285 293.709 76.2535 293.171C72.1758 292.12 68.8387 291.314 65.7512 290.634L64.7747 290.417C64.2315 290.299 63.6878 290.181 63.1342 290.069C59.467 289.3 56.0522 288.694 52.6893 288.218L51.8937 288.102C50.2986 287.893 48.8073 287.718 47.3439 287.571L46.7598 287.513C43.8936 287.241 40.9274 287.104 37.9558 287.104Z" fill="#F2F2F2"/>
<path d="M480.118 298.572C492.15 287.742 510.046 282.296 525.058 288.369C509.659 296.909 497.78 310.615 491.524 327.061C489.134 333.412 487.138 340.725 481.26 344.126C477.603 346.241 473.052 346.345 468.951 345.323C464.85 344.302 461.091 342.254 457.384 340.227L456.329 340.203C461.065 324.732 468.086 309.403 480.118 298.572Z" fill="#E6E6E6"/>
<path d="M524.974 288.698C511.678 290.414 499.263 296.272 489.489 305.438C487.35 307.374 485.53 309.635 484.096 312.137C482.778 314.619 482.149 317.409 482.275 320.216C482.34 322.836 482.71 325.509 482.137 328.099C481.823 329.42 481.234 330.661 480.407 331.739C479.58 332.816 478.534 333.708 477.338 334.353C474.401 336.04 471.031 336.572 467.718 336.978C464.039 337.428 460.211 337.838 457.027 339.899C456.641 340.148 456.276 339.536 456.661 339.287C462.201 335.701 469.212 337.005 475.169 334.612C477.948 333.496 480.408 331.535 481.278 328.572C482.04 325.98 481.66 323.224 481.572 320.572C481.408 317.835 481.918 315.1 483.057 312.605C484.359 310.038 486.089 307.711 488.173 305.724C492.793 301.175 498.099 297.38 503.899 294.478C510.5 291.13 517.625 288.934 524.967 287.985C525.422 287.927 525.425 288.64 524.974 288.698H524.974Z" fill="white"/>
<path d="M492.462 302.301C491.145 300.455 490.528 298.201 490.722 295.941C490.915 293.682 491.906 291.565 493.517 289.969C493.845 289.647 494.361 290.139 494.033 290.462C492.53 291.946 491.607 293.918 491.431 296.022C491.256 298.126 491.839 300.224 493.075 301.936C493.344 302.308 492.729 302.672 492.462 302.301V302.301Z" fill="white"/>
<path d="M482.067 318.892C486.636 319.701 491.342 318.76 495.247 316.256C495.634 316.008 495.999 316.621 495.613 316.869C491.545 319.466 486.645 320.436 481.893 319.584C481.44 319.502 481.617 318.811 482.067 318.892Z" fill="white"/>
<path d="M510.558 292.073C510.918 292.894 511.477 293.612 512.184 294.164C512.891 294.715 513.724 295.083 514.609 295.233C515.063 295.309 514.885 296 514.434 295.925C513.458 295.754 512.538 295.347 511.756 294.739C510.973 294.132 510.351 293.342 509.945 292.439C509.899 292.357 509.887 292.261 509.91 292.17C509.933 292.079 509.989 292.001 510.068 291.95C510.15 291.902 510.247 291.888 510.338 291.911C510.43 291.934 510.509 291.993 510.558 292.073Z" fill="white"/>
<path d="M541.588 340.598C541.303 340.559 541.019 340.52 540.73 340.485C536.9 339.977 533.035 339.781 529.173 339.899C528.875 339.903 528.572 339.912 528.274 339.925C518.973 340.307 509.824 342.41 501.292 346.129C497.898 347.611 494.622 349.35 491.493 351.329C487.171 354.063 482.702 357.37 477.871 358.485C477.368 358.607 476.858 358.698 476.344 358.757L456.381 341.491C456.356 341.429 456.326 341.371 456.3 341.309L455.472 340.656C455.626 340.543 455.788 340.428 455.943 340.315C456.032 340.249 456.125 340.187 456.215 340.121C456.276 340.078 456.337 340.035 456.389 339.993C456.409 339.978 456.43 339.964 456.446 339.954C456.499 339.912 456.552 339.879 456.6 339.841C457.507 339.2 458.419 338.564 459.337 337.934C459.341 337.929 459.341 337.929 459.35 337.928C466.302 333.057 473.808 329.026 481.711 325.921C481.948 325.832 482.189 325.738 482.436 325.656C485.995 324.334 489.656 323.305 493.383 322.579C495.425 322.188 497.485 321.901 499.556 321.718C504.909 321.255 510.301 321.637 515.535 322.848C525.967 325.265 535.511 330.988 541.163 339.912C541.307 340.141 541.448 340.365 541.588 340.598Z" fill="#E6E6E6"/>
<path d="M541.324 340.813C529.674 334.187 516.23 331.397 502.902 332.838C500.027 333.097 497.211 333.808 494.558 334.943C492.009 336.132 489.826 337.982 488.234 340.299C486.707 342.43 485.392 344.786 483.373 346.509C482.326 347.376 481.108 348.012 479.798 348.375C478.488 348.738 477.116 348.821 475.772 348.618C472.409 348.198 469.399 346.596 466.509 344.927C463.3 343.074 459.997 341.099 456.212 340.83C455.754 340.797 455.831 340.088 456.289 340.121C462.874 340.59 467.685 345.847 473.883 347.519C476.776 348.299 479.921 348.213 482.403 346.371C484.573 344.759 485.931 342.33 487.459 340.159C488.978 337.876 491.034 335.999 493.446 334.692C496.033 333.426 498.817 332.608 501.678 332.275C508.109 331.421 514.633 331.582 521.013 332.753C528.301 334.049 535.314 336.581 541.748 340.239C542.146 340.466 541.719 341.038 541.324 340.813V340.813Z" fill="white"/>
<path d="M507.166 332.121C507.228 329.855 508.094 327.684 509.61 325.996C511.126 324.309 513.193 323.215 515.442 322.909C515.897 322.849 516.012 323.553 515.557 323.613C513.462 323.894 511.536 324.913 510.128 326.488C508.719 328.062 507.921 330.087 507.876 332.198C507.866 332.657 507.156 332.578 507.166 332.121V332.121Z" fill="white"/>
<path d="M488.866 339.117C492.027 342.51 496.352 344.589 500.979 344.938C501.437 344.973 501.36 345.681 500.902 345.647C496.088 345.274 491.592 343.102 488.31 339.564C487.998 339.226 488.556 338.781 488.866 339.117H488.866Z" fill="white"/>
<path d="M527.779 334.838C527.572 335.71 527.586 336.619 527.818 337.485C528.05 338.35 528.494 339.145 529.109 339.797C529.426 340.13 528.868 340.575 528.553 340.244C527.876 339.52 527.387 338.642 527.129 337.687C526.87 336.731 526.85 335.726 527.069 334.761C527.082 334.668 527.13 334.584 527.203 334.525C527.276 334.466 527.369 334.438 527.463 334.445C527.556 334.455 527.642 334.503 527.702 334.576C527.761 334.65 527.789 334.744 527.779 334.838Z" fill="white"/>
<path d="M165.15 309.344C175.002 294.417 192.626 283.619 210.373 285.943C196.282 299.356 187.395 317.315 185.284 336.643C184.496 344.101 184.398 352.477 179.058 357.747C175.736 361.026 170.898 362.401 166.227 362.449C161.557 362.496 156.966 361.35 152.436 360.213L151.301 360.48C152.058 342.617 155.298 324.271 165.15 309.344Z" fill="#E6E6E6"/>
<path d="M210.375 286.318C196.633 291.848 184.985 301.563 177.085 314.082C175.337 316.747 174.02 319.671 173.183 322.746C172.464 325.767 172.569 328.926 173.485 331.893C174.285 334.677 175.425 337.433 175.533 340.362C175.565 341.863 175.28 343.353 174.696 344.736C174.112 346.118 173.242 347.362 172.143 348.385C169.47 351.006 166.015 352.511 162.584 353.865C158.775 355.369 154.795 356.871 151.963 359.96C151.62 360.335 151.059 359.781 151.402 359.407C156.328 354.033 164.189 353.48 169.894 349.265C172.556 347.298 174.641 344.518 174.746 341.106C174.839 338.123 173.665 335.281 172.832 332.469C171.895 329.587 171.679 326.52 172.202 323.535C172.88 320.428 174.082 317.459 175.757 314.754C179.431 308.605 184.05 303.072 189.444 298.356C195.571 292.941 202.581 288.612 210.169 285.557C210.639 285.368 210.842 286.13 210.375 286.318L210.375 286.318Z" fill="white"/>
<path d="M179.392 309.902C177.469 308.292 176.181 306.053 175.758 303.583C175.336 301.113 175.806 298.574 177.085 296.418C177.345 295.983 178.035 296.366 177.774 296.802C176.579 298.807 176.142 301.173 176.54 303.472C176.938 305.771 178.146 307.853 179.945 309.34C180.336 309.664 179.78 310.223 179.392 309.902Z" fill="white"/>
<path d="M172.894 330.535C178.006 330.13 182.777 327.816 186.256 324.053C186.601 323.68 187.162 324.233 186.818 324.606C183.19 328.515 178.22 330.913 172.9 331.323C172.393 331.362 172.39 330.573 172.894 330.535H172.894Z" fill="white"/>
<path d="M195.896 293.934C196.51 294.711 197.308 295.324 198.218 295.718C199.128 296.111 200.121 296.272 201.109 296.187C201.616 296.142 201.618 296.931 201.115 296.975C200.023 297.064 198.926 296.885 197.92 296.452C196.914 296.02 196.029 295.348 195.343 294.495C195.271 294.42 195.231 294.321 195.23 294.217C195.23 294.114 195.268 294.014 195.339 293.938C195.412 293.864 195.512 293.822 195.617 293.821C195.721 293.821 195.822 293.861 195.896 293.934H195.896Z" fill="white"/>
<path d="M242.599 337.21C242.283 337.247 241.968 337.284 241.649 337.327C237.412 337.848 233.223 338.712 229.126 339.911C228.808 339.999 228.486 340.092 228.171 340.189C218.33 343.182 209.131 347.975 201.041 354.322C197.824 356.851 194.805 359.621 192.009 362.608C188.147 366.732 184.289 371.511 179.432 374.046C178.929 374.317 178.409 374.555 177.875 374.761L151.716 361.842C151.672 361.783 151.624 361.73 151.579 361.67L150.511 361.202C150.644 361.038 150.786 360.871 150.919 360.707C150.996 360.611 151.079 360.519 151.156 360.423C151.209 360.36 151.263 360.298 151.307 360.238C151.325 360.217 151.343 360.196 151.358 360.181C151.402 360.122 151.449 360.071 151.491 360.017C152.282 359.08 153.08 358.146 153.887 357.217C153.89 357.211 153.89 357.211 153.899 357.208C160.064 350.14 166.873 343.524 174.471 338.151C174.7 337.99 174.931 337.822 175.172 337.666C178.61 335.264 182.239 333.145 186.023 331.333C188.098 330.348 190.222 329.467 192.386 328.696C197.982 326.714 203.855 325.624 209.79 325.465C221.622 325.151 233.422 328.619 241.953 336.594C242.171 336.798 242.384 336.999 242.599 337.21Z" fill="#E6E6E6"/>
<path d="M242.376 337.512C228.071 333.663 212.915 334.415 199.062 339.66C196.059 340.736 193.245 342.279 190.724 344.23C188.329 346.21 186.509 348.795 185.452 351.716C184.412 354.419 183.662 357.305 181.982 359.709C181.104 360.927 179.978 361.945 178.678 362.698C177.378 363.451 175.934 363.92 174.44 364.076C170.727 364.561 167.06 363.685 163.505 362.703C159.557 361.613 155.474 360.419 151.351 361.182C150.851 361.275 150.737 360.495 151.236 360.403C158.409 359.074 165.019 363.361 172.114 363.426C175.425 363.457 178.765 362.491 180.906 359.83C182.778 357.504 183.554 354.529 184.583 351.782C185.572 348.918 187.248 346.339 189.465 344.271C191.879 342.198 194.629 340.55 197.596 339.398C204.235 336.698 211.259 335.057 218.408 334.537C226.564 333.897 234.77 334.656 242.67 336.781C243.159 336.913 242.862 337.643 242.376 337.512Z" fill="white"/>
<path d="M203.423 337.709C202.857 335.268 203.179 332.705 204.33 330.479C205.482 328.253 207.388 326.508 209.708 325.556C210.178 325.365 210.497 326.086 210.027 326.277C207.864 327.159 206.089 328.785 205.021 330.86C203.953 332.935 203.663 335.324 204.203 337.594C204.32 338.087 203.539 338.199 203.423 337.709H203.423Z" fill="white"/>
<path d="M185.799 350.276C190.124 353.027 195.329 354.048 200.375 353.136C200.874 353.046 200.989 353.825 200.49 353.916C195.237 354.855 189.823 353.781 185.328 350.908C184.9 350.634 185.373 350.003 185.799 350.276V350.276Z" fill="white"/>
<path d="M226.225 334.886C226.247 335.876 226.514 336.845 227.004 337.706C227.493 338.567 228.189 339.294 229.029 339.82C229.461 340.089 228.987 340.719 228.559 340.453C227.633 339.867 226.866 339.064 226.323 338.113C225.78 337.163 225.479 336.094 225.445 335.001C225.433 334.898 225.461 334.794 225.522 334.711C225.584 334.628 225.675 334.572 225.777 334.553C225.881 334.539 225.986 334.565 226.07 334.628C226.153 334.69 226.209 334.783 226.225 334.886V334.886Z" fill="white"/>
<path d="M235.268 197.432C235.921 196.782 236.424 195.997 236.742 195.132C237.059 194.267 237.182 193.343 237.103 192.426C237.024 191.508 236.745 190.619 236.285 189.82C235.824 189.022 235.194 188.335 234.439 187.806L244.736 138.029L233.627 141.529L225.343 189.685C224.538 191.011 224.248 192.586 224.527 194.111C224.807 195.637 225.637 197.007 226.86 197.962C228.084 198.917 229.615 199.39 231.165 199.292C232.714 199.195 234.174 198.533 235.268 197.432Z" fill="#FFB6B6"/>
<path d="M259.067 64.3752L252.186 59.1865C252.186 59.1865 246.116 58.7571 245.04 69.6923C243.965 80.6274 237.234 122.596 237.234 122.596L226.704 171.312L241.28 174.508L252.558 121.935L263.848 85.6647L259.067 64.3752Z" fill="#E6E6E6"/>
<path d="M253.825 154.517L220.817 128.88C220.302 128.48 219.968 127.892 219.887 127.246C219.806 126.6 219.985 125.948 220.385 125.434L242.843 96.5815C243.244 96.0679 243.832 95.7341 244.479 95.6533C245.126 95.5724 245.778 95.7512 246.293 96.1503L279.302 121.788C279.816 122.188 280.15 122.776 280.231 123.422C280.312 124.068 280.133 124.72 279.733 125.234L257.275 154.086C256.874 154.6 256.286 154.934 255.639 155.014C254.992 155.095 254.34 154.917 253.825 154.517Z" fill="#3F3D56"/>
<path d="M253.643 151.865L223.435 128.402C222.979 128.046 222.682 127.525 222.61 126.951C222.538 126.377 222.697 125.799 223.052 125.342L243.412 99.1861C243.767 98.7301 244.29 98.4337 244.864 98.3619C245.438 98.2901 246.018 98.4488 246.475 98.8032L276.683 122.266C277.14 122.621 277.436 123.143 277.508 123.717C277.58 124.29 277.421 124.869 277.066 125.326L256.707 151.482C256.351 151.938 255.829 152.234 255.254 152.306C254.68 152.378 254.101 152.219 253.643 151.865Z" fill="white"/>
<path d="M227.395 127.736C227.281 127.648 227.207 127.517 227.189 127.374C227.171 127.23 227.211 127.086 227.3 126.972L237.571 113.777C237.659 113.663 237.79 113.588 237.934 113.57C238.005 113.562 238.077 113.567 238.146 113.586C238.215 113.605 238.28 113.637 238.336 113.681C238.393 113.725 238.44 113.78 238.476 113.842C238.511 113.904 238.534 113.973 238.543 114.044C238.552 114.115 238.547 114.187 238.528 114.256C238.509 114.325 238.476 114.389 238.432 114.446L228.161 127.641C228.072 127.755 227.942 127.829 227.798 127.847C227.655 127.865 227.51 127.825 227.395 127.736Z" fill="#E4E4E4"/>
<path d="M229.098 129.059C228.984 128.97 228.909 128.839 228.891 128.696C228.874 128.553 228.913 128.408 229.002 128.294L239.273 115.099C239.362 114.985 239.492 114.91 239.636 114.893C239.779 114.875 239.924 114.914 240.039 115.003C240.153 115.092 240.227 115.222 240.245 115.366C240.263 115.509 240.223 115.654 240.134 115.768L229.864 128.963C229.775 129.077 229.644 129.151 229.5 129.169C229.357 129.187 229.212 129.147 229.098 129.059Z" fill="#E4E4E4"/>
<path d="M236.619 122.906C236.505 122.817 236.43 122.686 236.412 122.543C236.395 122.399 236.434 122.255 236.523 122.141L240.975 116.421C241.019 116.364 241.074 116.317 241.136 116.281C241.198 116.246 241.267 116.223 241.338 116.214C241.409 116.205 241.482 116.21 241.551 116.229C241.62 116.248 241.685 116.281 241.741 116.325C241.798 116.369 241.845 116.423 241.881 116.486C241.916 116.548 241.939 116.617 241.948 116.688C241.957 116.759 241.952 116.831 241.932 116.9C241.913 116.969 241.881 117.034 241.837 117.09L237.385 122.81C237.296 122.924 237.165 122.998 237.021 123.016C236.878 123.034 236.733 122.994 236.619 122.906Z" fill="#E4E4E4"/>
<path d="M238.914 134.13C238.8 134.041 238.726 133.91 238.708 133.767C238.69 133.624 238.729 133.479 238.818 133.365L255.033 112.534C255.077 112.478 255.131 112.43 255.194 112.395C255.256 112.36 255.325 112.337 255.396 112.328C255.467 112.319 255.539 112.324 255.608 112.343C255.677 112.362 255.742 112.395 255.798 112.439C255.855 112.483 255.902 112.537 255.938 112.599C255.973 112.662 255.996 112.73 256.005 112.801C256.014 112.872 256.009 112.944 255.99 113.013C255.971 113.082 255.938 113.147 255.894 113.204L239.68 134.034C239.591 134.148 239.46 134.222 239.317 134.24C239.173 134.258 239.028 134.218 238.914 134.13Z" fill="#E4E4E4"/>
<path d="M240.616 135.452C240.502 135.363 240.428 135.233 240.41 135.089C240.392 134.946 240.432 134.801 240.52 134.687L256.735 113.856C256.779 113.8 256.834 113.753 256.896 113.717C256.958 113.682 257.027 113.659 257.098 113.65C257.169 113.641 257.241 113.646 257.31 113.665C257.379 113.684 257.444 113.717 257.501 113.761C257.557 113.805 257.605 113.859 257.64 113.922C257.676 113.984 257.698 114.052 257.707 114.123C257.716 114.194 257.711 114.266 257.692 114.336C257.673 114.405 257.641 114.469 257.597 114.526L241.382 135.356C241.293 135.47 241.163 135.544 241.019 135.562C240.875 135.58 240.731 135.54 240.616 135.452Z" fill="#E4E4E4"/>
<path d="M244.48 138.453C244.366 138.364 244.292 138.234 244.274 138.091C244.256 137.947 244.296 137.802 244.385 137.688L260.599 116.858C260.643 116.801 260.698 116.754 260.76 116.719C260.822 116.683 260.891 116.66 260.962 116.651C261.033 116.643 261.105 116.648 261.175 116.667C261.244 116.686 261.308 116.718 261.365 116.762C261.421 116.806 261.469 116.861 261.504 116.923C261.54 116.985 261.562 117.054 261.571 117.125C261.58 117.196 261.575 117.268 261.556 117.337C261.537 117.406 261.505 117.47 261.461 117.527L245.246 138.357C245.157 138.471 245.027 138.546 244.883 138.563C244.74 138.581 244.595 138.542 244.48 138.453Z" fill="#E4E4E4"/>
<path d="M246.183 139.775C246.069 139.687 245.994 139.556 245.976 139.413C245.958 139.269 245.998 139.125 246.087 139.01L262.301 118.18C262.345 118.123 262.4 118.076 262.462 118.041C262.525 118.005 262.593 117.982 262.664 117.974C262.736 117.965 262.808 117.97 262.877 117.989C262.946 118.008 263.011 118.04 263.067 118.084C263.124 118.128 263.171 118.183 263.207 118.245C263.242 118.307 263.265 118.376 263.274 118.447C263.283 118.518 263.277 118.59 263.258 118.659C263.239 118.728 263.207 118.793 263.163 118.849L246.948 139.68C246.86 139.794 246.729 139.868 246.585 139.886C246.442 139.904 246.297 139.864 246.183 139.775Z" fill="#E4E4E4"/>
<path d="M250.047 142.777C249.933 142.688 249.859 142.557 249.841 142.414C249.823 142.271 249.862 142.126 249.951 142.012L266.166 121.181C266.21 121.125 266.264 121.077 266.326 121.042C266.389 121.007 266.457 120.984 266.529 120.975C266.6 120.966 266.672 120.971 266.741 120.99C266.81 121.009 266.875 121.042 266.931 121.086C266.988 121.129 267.035 121.184 267.071 121.246C267.106 121.309 267.129 121.377 267.138 121.448C267.147 121.519 267.141 121.591 267.123 121.66C267.104 121.729 267.071 121.794 267.027 121.85L250.813 142.681C250.724 142.795 250.593 142.869 250.45 142.887C250.306 142.905 250.161 142.865 250.047 142.777Z" fill="#E4E4E4"/>
<path d="M251.749 144.099C251.635 144.01 251.561 143.879 251.543 143.736C251.525 143.593 251.565 143.448 251.653 143.334L267.868 122.503C267.957 122.39 268.087 122.316 268.231 122.298C268.374 122.281 268.518 122.32 268.633 122.409C268.747 122.498 268.821 122.628 268.839 122.771C268.857 122.914 268.818 123.058 268.729 123.173L252.515 144.003C252.426 144.117 252.295 144.191 252.152 144.209C252.008 144.227 251.863 144.187 251.749 144.099Z" fill="#E4E4E4"/>
<path d="M224.649 168.29C224.773 168.29 224.873 168.19 224.873 168.066C224.873 167.943 224.773 167.843 224.649 167.843C224.526 167.843 224.425 167.943 224.425 168.066C224.425 168.19 224.526 168.29 224.649 168.29Z" fill="white"/>
<path d="M257.298 14.0709C256.51 18.3005 255.218 22.4206 253.449 26.3432C243.32 47.748 272.166 40.7711 282.475 40.7711C293.746 40.7711 304.53 46.6914 302.882 20.3856C302.179 9.14888 293.746 0 282.475 0C272.847 0 259.312 4.27445 257.298 14.0709Z" fill="#2F2E41"/>
<path d="M292.981 328.001H283.378L278.808 291.002H292.981V328.001Z" fill="#FFB6B6"/>
<path d="M298.049 344.622H291.162L289.933 338.127L286.785 344.622H268.52C267.645 344.622 266.792 344.342 266.087 343.824C265.382 343.306 264.861 342.576 264.6 341.741C264.34 340.906 264.353 340.01 264.639 339.183C264.924 338.356 265.467 337.642 266.187 337.145L280.773 327.083V320.517L296.115 321.432L298.049 344.622Z" fill="#2F2E41"/>
<path d="M350.032 315.896L342.325 321.62L316.557 294.654L327.93 286.206L350.032 315.896Z" fill="#FFB6B6"/>
<path d="M364.027 326.212L358.501 330.316L353.635 325.837L354.988 332.926L340.331 343.813C339.629 344.335 338.778 344.619 337.902 344.623C337.027 344.627 336.173 344.352 335.465 343.838C334.757 343.323 334.232 342.596 333.968 341.762C333.703 340.928 333.712 340.032 333.993 339.204L339.687 322.435L335.764 317.167L348.622 308.756L364.027 326.212Z" fill="#2F2E41"/>
<path d="M261.53 157.72L307.115 150.628L298.049 123.386H261.53V157.72Z" fill="#FFB6B6"/>
<path d="M304.161 137.106C304.161 137.106 322.381 152.83 313.974 197.656L303.711 241.577L331.673 290.069L317.455 297.816L282.997 249.976L267.229 213.031L258.889 148.28L304.161 137.106Z" fill="#2F2E41"/>
<path d="M275.92 223.559L274.824 240.513L278.032 290.715L293.959 296.193L296.975 244.755L275.92 223.559Z" fill="#2F2E41"/>
<path d="M271.024 46.4133L288.644 47.1L295.667 58.7444L311.689 61.8688L302.124 110.204L303.883 137.716L287.929 137.619C276.432 137.549 265.313 141.721 256.705 149.336L257.183 113.624L250.321 86.9645L251.863 59.0109L264.752 57.4015L271.024 46.4133Z" fill="#E6E6E6"/>
<path d="M280.786 40.7661C289.945 40.7661 297.37 33.3494 297.37 24.2005C297.37 15.0516 289.945 7.63493 280.786 7.63493C271.627 7.63493 264.202 15.0516 264.202 24.2005C264.202 33.3494 271.627 40.7661 280.786 40.7661Z" fill="#FFB6B6"/>
<path d="M269.524 7.3142C272.43 5.54455 275.758 4.58727 279.162 4.54245C282.565 4.49764 285.917 5.36694 288.869 7.05945C291.821 8.75196 294.263 11.2055 295.94 14.1636C297.618 17.1217 298.469 20.4756 298.405 23.8747C289.954 25.9939 281.077 27.6158 272.065 24.3816L269.937 19.1788L268.682 24.3854C265.938 25.5059 263.187 26.454 260.435 24.3746C260.323 20.9851 261.103 17.6255 262.698 14.6317C264.293 11.6378 266.647 9.11459 269.524 7.3142Z" fill="#2F2E41"/>
<path d="M308.622 171.114L310.858 191.38C311.013 191.886 311.327 192.328 311.753 192.642C312.179 192.957 312.695 193.126 313.224 193.126H323.529C324.059 193.126 324.575 192.957 325.001 192.643C325.427 192.328 325.741 191.886 325.896 191.38L327.748 175.847C328.283 176.109 328.872 176.24 329.467 176.23C330.062 176.22 330.646 176.069 331.172 175.79C331.697 175.51 332.148 175.11 332.489 174.623C332.829 174.135 333.049 173.573 333.13 172.984C333.211 172.395 333.15 171.795 332.954 171.234C332.757 170.673 332.43 170.166 332 169.756C331.569 169.345 331.047 169.043 330.476 168.873C329.906 168.704 329.303 168.672 328.718 168.78C328.487 168.508 328.199 168.289 327.874 168.139C327.55 167.989 327.196 167.912 326.839 167.913H310.989C310.602 167.913 310.219 168.004 309.873 168.178C309.527 168.352 309.227 168.605 308.997 168.917C308.767 169.228 308.613 169.589 308.548 169.971C308.483 170.353 308.508 170.744 308.622 171.114ZM328.072 174.797L329.206 171.114C329.337 170.689 329.35 170.237 329.243 169.805C329.292 169.802 329.337 169.79 329.387 169.79C330.099 169.79 330.782 170.073 331.285 170.576C331.789 171.079 332.072 171.761 332.072 172.473C332.072 173.184 331.789 173.866 331.285 174.369C330.782 174.872 330.099 175.155 329.387 175.155C328.924 175.152 328.471 175.029 328.072 174.797Z" fill="#8BD5F8"/>
<path d="M324.161 193.14C323.511 192.487 323.011 191.7 322.699 190.833C322.386 189.967 322.267 189.042 322.351 188.125C322.434 187.208 322.718 186.32 323.183 185.524C323.647 184.728 324.28 184.043 325.038 183.519L314.995 133.69L326.086 137.247L334.125 185.444C334.923 186.774 335.205 188.35 334.918 189.874C334.63 191.398 333.793 192.764 332.565 193.713C331.337 194.661 329.803 195.127 328.254 195.022C326.705 194.916 325.249 194.247 324.161 193.14Z" fill="#FFB6B6"/>
<path d="M304.808 67.0575L311.689 61.8688C311.689 61.8688 317.76 61.4394 318.835 72.3746C319.91 83.3097 326.641 125.279 326.641 125.279L337.171 173.995L322.595 177.191L311.317 124.617L300.027 88.347L304.808 67.0575Z" fill="#E6E6E6"/>
<path d="M245.418 112.417C247.569 112.417 249.313 110.675 249.313 108.526C249.313 106.377 247.569 104.635 245.418 104.635C243.267 104.635 241.523 106.377 241.523 108.526C241.523 110.675 243.267 112.417 245.418 112.417Z" fill="#8BD5F8"/>
<path d="M121.205 373.14L129.323 373.139L133.185 341.862L121.204 341.863L121.205 373.14Z" fill="#FFB6B6"/>
<path d="M119.134 370.492L121.419 370.492L130.34 366.868L135.121 370.492H135.122C137.824 370.492 140.415 371.564 142.326 373.472C144.236 375.381 145.31 377.969 145.31 380.668V380.999L119.135 381L119.134 370.492Z" fill="#2F2E41"/>
<path d="M152.663 368.03L160.582 369.816L171.246 340.157L159.559 337.521L152.663 368.03Z" fill="#FFB6B6"/>
<path d="M151.227 364.992L153.456 365.494L162.956 363.922L166.821 368.509L166.822 368.509C169.457 369.104 171.749 370.72 173.191 373.002C174.634 375.284 175.111 378.045 174.516 380.677L174.443 381L148.91 375.242L151.227 364.992Z" fill="#2F2E41"/>
<path d="M106.344 212.255L113.684 294.41C113.684 294.41 110.934 343.731 119.809 361.087H132.681L139.054 289.905L139.854 242.128L167.45 282.436L149.873 359.923L165.715 361.338L194.237 277.246L162.902 198.303L106.344 212.255Z" fill="#2F2E41"/>
<path d="M114.032 81.426C124.487 81.426 132.963 72.9595 132.963 62.5155C132.963 52.0715 124.487 43.605 114.032 43.605C103.576 43.605 95.1006 52.0715 95.1006 62.5155C95.1006 72.9595 103.576 81.426 114.032 81.426Z" fill="#FFB8B8"/>
<path d="M147.311 99.4468L131.78 92.7902L124.22 84.7797L105.333 87.8225L100.321 96.4054L84.0991 111.473L103.105 197.316L102.53 216.065C102.53 216.065 114.694 221.535 167.449 208.94C168.082 208.789 166.758 208.128 166.758 208.128L147.311 99.4468Z" fill="#3F3D56"/>
<path d="M94.3462 73.2458C94.2143 73.0659 94.0837 72.8846 93.9544 72.7018C93.9023 72.8116 93.8609 72.925 93.8015 73.0322L94.3462 73.2458Z" fill="#2F2E41"/>
<path d="M132.863 48.6833C131.598 45.9296 129.342 43.7523 126.543 42.584C123.769 41.4663 120.669 41.469 117.897 42.5915C115.394 41.012 112.613 39.7598 109.684 39.6047C106.756 39.4496 103.66 40.5349 101.855 42.9239C101.452 43.5546 100.994 44.1486 100.487 44.6991C99.0362 46.0411 96.8315 45.8475 94.9033 45.5731C95.7682 46.3135 96.6332 47.054 97.4985 47.7944C96.4517 48.0676 95.4046 48.3408 94.3575 48.614C95.5793 49.3542 96.801 50.0943 98.0226 50.8345C94.4759 52.961 92.8639 57.6024 93.2897 61.8177C93.6925 65.8086 95.6214 69.458 97.9272 72.7017C98.8471 70.7628 98.6489 68.4427 98.6337 66.2589C98.6178 63.9515 99.0265 61.3313 100.877 60.0417C102.126 59.1719 103.732 59.133 105.237 59.1412C112.832 59.1829 120.419 59.656 127.96 60.5583C128.983 60.6025 129.981 60.8915 130.869 61.4011C132.537 62.5376 132.861 64.8828 133.029 66.9404C133.91 63.5431 134.341 60.045 134.312 56.5357C134.386 53.8457 133.892 51.1703 132.863 48.6833Z" fill="#2F2E41"/>
<path d="M138.757 269.846C155.213 269.846 168.554 256.52 168.554 240.082C168.554 223.644 155.213 210.318 138.757 210.318C122.301 210.318 108.961 223.644 108.961 240.082C108.961 256.52 122.301 269.846 138.757 269.846Z" fill="white"/>
<path d="M138.757 209.657C137.226 209.657 135.696 209.772 134.182 210.001C133.407 210.113 132.653 210.259 131.904 210.437C126.407 211.703 121.37 214.469 117.356 218.428C113.341 222.386 110.506 227.381 109.168 232.855C107.83 238.329 108.04 244.067 109.776 249.428C111.512 254.79 114.705 259.564 118.999 263.218C119.509 263.648 120.025 264.065 120.562 264.462C124.427 267.341 128.922 269.262 133.676 270.067C138.43 270.871 143.308 270.537 147.907 269.091C152.506 267.645 156.696 265.128 160.132 261.748C163.567 258.369 166.15 254.222 167.668 249.651C169.186 245.079 169.595 240.213 168.862 235.452C168.129 230.691 166.275 226.173 163.452 222.268C160.63 218.363 156.919 215.183 152.626 212.991C148.332 210.798 143.579 209.656 138.757 209.657V209.657ZM138.757 269.184C132.562 269.191 126.529 267.214 121.542 263.542C120.999 263.146 120.476 262.736 119.966 262.299C115.782 258.774 112.678 254.142 111.009 248.935C109.341 243.728 109.175 238.157 110.531 232.86C111.887 227.564 114.711 222.756 118.677 218.989C122.644 215.222 127.593 212.647 132.957 211.562C133.698 211.409 134.44 211.29 135.195 211.198C136.377 211.052 137.567 210.979 138.757 210.98C146.484 210.98 153.895 214.046 159.358 219.503C164.822 224.961 167.892 232.364 167.892 240.082C167.892 247.8 164.822 255.203 159.358 260.66C153.895 266.118 146.484 269.184 138.757 269.184Z" fill="#3F3D56"/>
<path d="M124.143 234.129H153.372C154.443 234.129 155.311 233.262 155.311 232.193V232.097C155.311 231.028 154.443 230.161 153.372 230.161H124.143C123.072 230.161 122.204 231.028 122.204 232.097V232.193C122.204 233.262 123.072 234.129 124.143 234.129Z" fill="#8BD5F8"/>
<path d="M124.143 242.066H153.372C154.443 242.066 155.311 241.199 155.311 240.13V240.034C155.311 238.965 154.443 238.098 153.372 238.098H124.143C123.072 238.098 122.204 238.965 122.204 240.034V240.13C122.204 241.199 123.072 242.066 124.143 242.066Z" fill="#8BD5F8"/>
<path d="M124.143 250.003H153.372C154.443 250.003 155.311 249.136 155.311 248.067V247.971C155.311 246.902 154.443 246.035 153.372 246.035H124.143C123.072 246.035 122.204 246.902 122.204 247.971V248.067C122.204 249.136 123.072 250.003 124.143 250.003Z" fill="#8BD5F8"/>
<path d="M472.114 372.13L463.602 372.13L459.553 339.334L472.115 339.334L472.114 372.13Z" fill="#9E616A"/>
<path d="M431.844 372.13L423.333 372.13L419.283 339.334L431.846 339.334L431.844 372.13Z" fill="#9E616A"/>
<path d="M432.144 381L405.969 380.999V380.668C405.969 377.969 407.043 375.381 408.953 373.472C410.864 371.564 413.455 370.492 416.157 370.492H416.158L420.939 366.868L429.86 370.492L432.145 370.492L432.144 381Z" fill="#2F2E41"/>
<path d="M473.506 381L447.331 380.999V380.668C447.331 377.969 448.404 375.381 450.315 373.472C452.225 371.564 454.817 370.492 457.519 370.492H457.519L462.301 366.868L471.221 370.492L473.506 370.492L473.506 381Z" fill="#2F2E41"/>
<path d="M423.495 178.033L410.559 256.717L414.079 268.442L409.46 276.746L416.244 349.676L413.49 355.732L421.184 360.472H436.841L437.672 294.448L441.539 284.755V279.412L449.412 239.153L450.862 295.534L453.152 305.243L451.228 312.155L453.742 316.998L460.418 361.911H477.975L476.617 351.462C478.146 350.689 479.375 349.429 480.109 347.883C480.844 346.336 481.043 344.589 480.676 342.916L479.669 338.337L481.96 324.795L486.132 249.249L484.956 188.292L464.418 172.605L423.495 178.033Z" fill="#2F2E41"/>
<path d="M453.152 76.9931C462.16 76.9931 469.463 69.6984 469.463 60.6999C469.463 51.7014 462.16 44.4066 453.152 44.4066C444.143 44.4066 436.841 51.7014 436.841 60.6999C436.841 69.6984 444.143 76.9931 453.152 76.9931Z" fill="#9E616A"/>
<path d="M417.514 209.257C418.224 208.524 418.764 207.645 419.097 206.681C419.43 205.718 419.547 204.693 419.441 203.679C419.334 202.665 419.006 201.686 418.48 200.812C417.954 199.939 417.243 199.191 416.396 198.622L422.739 174.662L410.519 178.767L406.369 200.891C405.506 202.375 405.217 204.124 405.559 205.806C405.9 207.489 406.848 208.987 408.221 210.019C409.595 211.05 411.3 211.542 413.013 211.402C414.725 211.261 416.327 210.498 417.514 209.257H417.514Z" fill="#9E616A"/>
<path d="M424.189 94.2208L421.566 93.6771L419.329 94.9143C419.329 94.9143 413.08 103.237 413.08 110.866C413.08 118.495 405.443 192.01 405.443 192.01L419.329 198.252L430.438 140.688L424.189 94.2208Z" fill="#E6E6E6"/>
<path d="M467.436 48.754C467.436 48.754 471.702 40.6073 462.316 39.8667C462.316 39.8667 454.315 32.6165 446.16 38.5413C446.16 38.5413 441.711 38.5413 439.278 43.5697C439.278 43.5697 435.78 42.2443 435.011 45.7915C435.011 45.7915 432.451 53.1976 435.011 59.863C437.571 66.5284 438.421 67.269 438.421 67.269C438.421 67.269 434.215 53.2946 444.454 52.554C454.694 51.8134 466.153 45.4213 467.006 53.5679C467.859 61.7145 469.143 63.7218 469.143 63.7218C469.143 63.7218 477.249 52.0867 467.436 48.754Z" fill="#2F2E41"/>
<path d="M527.02 276.746C525.788 276.748 524.6 276.295 523.683 275.475L474.32 231.582C473.325 230.696 472.723 229.451 472.646 228.122C472.569 226.792 473.022 225.487 473.908 224.491L505.53 189.006C506.417 188.012 507.663 187.41 508.994 187.333C510.325 187.256 511.632 187.709 512.629 188.593L561.992 232.487C562.988 233.372 563.591 234.617 563.668 235.947C563.746 237.276 563.291 238.582 562.404 239.577L530.782 275.063C530.344 275.557 529.813 275.959 529.218 276.247C528.623 276.534 527.977 276.701 527.318 276.738C527.218 276.744 527.119 276.746 527.02 276.746Z" fill="white"/>
<path d="M527.019 277.069C525.709 277.071 524.444 276.589 523.468 275.716L474.105 231.824C473.047 230.88 472.406 229.555 472.324 228.14C472.241 226.726 472.724 225.336 473.666 224.276L505.288 188.791C506.233 187.734 507.559 187.094 508.975 187.011C510.392 186.929 511.783 187.411 512.844 188.352L562.207 232.245C563.267 233.188 563.909 234.513 563.991 235.928C564.073 237.343 563.589 238.733 562.646 239.792L531.023 275.277C530.557 275.803 529.992 276.232 529.359 276.538C528.726 276.844 528.039 277.021 527.337 277.06C527.23 277.066 527.125 277.069 527.019 277.069ZM509.288 188.292C508.715 188.291 508.148 188.412 507.625 188.646C507.102 188.879 506.635 189.222 506.254 189.649L474.632 225.135C473.917 225.938 473.551 226.992 473.613 228.066C473.676 229.139 474.162 230.143 474.965 230.859L524.327 274.752C524.726 275.106 525.19 275.378 525.693 275.553C526.197 275.728 526.73 275.802 527.262 275.771C527.794 275.74 528.315 275.605 528.794 275.373C529.274 275.141 529.703 274.817 530.058 274.419L561.68 238.934C562.396 238.13 562.763 237.076 562.701 236.003C562.638 234.929 562.151 233.925 561.347 233.21L511.984 189.317C511.242 188.656 510.282 188.291 509.288 188.292H509.288Z" fill="#3F3D56"/>
<path d="M544.919 243.14C544.386 243.141 543.872 242.945 543.474 242.591L504.726 208.136C504.512 207.947 504.337 207.717 504.211 207.46C504.086 207.203 504.013 206.923 503.996 206.638C503.978 206.352 504.018 206.066 504.112 205.796C504.206 205.526 504.352 205.277 504.542 205.063C504.733 204.85 504.963 204.676 505.221 204.551C505.479 204.427 505.759 204.354 506.045 204.338C506.331 204.322 506.617 204.363 506.887 204.457C507.157 204.552 507.406 204.699 507.619 204.89L546.368 239.344C546.697 239.637 546.93 240.023 547.035 240.451C547.139 240.879 547.111 241.329 546.954 241.741C546.797 242.153 546.518 242.507 546.155 242.757C545.792 243.007 545.361 243.14 544.919 243.14Z" fill="#8BD5F8"/>
<path d="M537.529 251.433C536.996 251.434 536.481 251.239 536.083 250.884L497.335 216.43C497.122 216.24 496.948 216.01 496.824 215.753C496.699 215.496 496.627 215.217 496.61 214.932C496.593 214.647 496.633 214.362 496.727 214.093C496.821 213.823 496.967 213.575 497.157 213.361C497.347 213.148 497.577 212.975 497.834 212.85C498.092 212.726 498.371 212.654 498.656 212.637C498.941 212.621 499.227 212.66 499.497 212.754C499.767 212.848 500.015 212.994 500.229 213.184L538.977 247.638C539.306 247.931 539.539 248.317 539.644 248.745C539.749 249.173 539.721 249.623 539.563 250.035C539.406 250.446 539.128 250.801 538.764 251.051C538.401 251.3 537.97 251.434 537.529 251.433H537.529Z" fill="#8BD5F8"/>
<path d="M530.138 259.728C529.605 259.729 529.09 259.533 528.692 259.178L489.944 224.724C489.73 224.535 489.556 224.305 489.431 224.048C489.306 223.791 489.233 223.512 489.217 223.226C489.2 222.941 489.24 222.656 489.334 222.386C489.427 222.116 489.574 221.867 489.764 221.654C489.954 221.441 490.184 221.267 490.442 221.143C490.699 221.018 490.979 220.946 491.264 220.929C491.549 220.913 491.835 220.953 492.105 221.047C492.375 221.141 492.624 221.287 492.838 221.478L531.585 255.932C531.915 256.225 532.148 256.611 532.253 257.039C532.357 257.467 532.329 257.917 532.172 258.329C532.015 258.74 531.737 259.095 531.373 259.345C531.01 259.595 530.579 259.728 530.138 259.728H530.138Z" fill="#8BD5F8"/>
<path d="M485.826 210.671C485.329 209.781 485.033 208.792 484.96 207.775C484.886 206.758 485.037 205.738 485.401 204.785C485.765 203.833 486.334 202.972 487.068 202.263C487.801 201.554 488.681 201.014 489.646 200.681L489.688 175.898L500.439 183.006L498.751 205.451C499.203 207.107 499.031 208.871 498.268 210.409C497.505 211.947 496.203 213.152 494.61 213.795C493.017 214.439 491.243 214.476 489.624 213.9C488.005 213.325 486.654 212.176 485.826 210.671H485.826Z" fill="#9E616A"/>
<path d="M486.82 101.012L491.623 96.3877L495.152 98.9316C495.152 98.9316 498.623 103.093 501.4 115.577C504.178 128.06 501.4 196.721 501.4 196.721L486.126 194.64L488.209 158.576L481.96 128.06L486.82 101.012Z" fill="#E6E6E6"/>
<path d="M493.913 97.5158L477.73 89.7944L466.744 79.6152L446.709 79.4654L440.247 87.8577L423.185 93.647L426.029 152.414L424.09 156.933C424.09 156.933 425.441 158.152 426.058 158.834C426.675 159.515 425.205 165.222 425.205 165.222L424.376 171.432L426.675 173.072L423.687 176.598L422.945 182.156C422.945 182.156 475.108 169.205 484.965 190.66C485.486 191.794 484.203 180.715 484.203 180.715L482.921 172.605L484.193 165.325L486.132 163.389L482.88 160.141L484.965 144.728L493.913 97.5158Z" fill="#3F3D56"/>
<path d="M126.934 227.798C127.336 226.779 127.509 225.685 127.441 224.592C127.374 223.5 127.067 222.435 126.543 221.474C126.019 220.512 125.291 219.677 124.409 219.027C123.527 218.377 122.513 217.929 121.438 217.713L117.844 191.345L107.421 200.446L112.432 224.09C112.189 225.917 112.624 227.77 113.657 229.297C114.689 230.825 116.247 231.921 118.035 232.378C119.822 232.835 121.715 232.621 123.355 231.777C124.996 230.933 126.269 229.517 126.934 227.798V227.798Z" fill="#FFB8B8"/>
<path d="M86.0992 110.991L83.2741 111.531L81.5665 113.679C81.5665 113.679 78.804 124.503 81.951 132.067C85.0979 139.631 107.851 215.666 107.851 215.666L124.194 216.139L111.463 154.491L86.0992 110.991Z" fill="#3F3D56"/>
<path d="M150.527 223.93C149.774 223.134 149.205 222.184 148.86 221.145C148.515 220.106 148.402 219.004 148.529 217.916C148.657 216.829 149.021 215.783 149.597 214.851C150.173 213.92 150.946 213.126 151.862 212.525L145.356 186.721L158.424 191.283L162.599 215.088C163.507 216.693 163.794 218.574 163.407 220.376C163.019 222.178 161.983 223.775 160.495 224.865C159.007 225.955 157.17 226.462 155.333 226.289C153.496 226.117 151.786 225.277 150.527 223.93Z" fill="#FFB8B8"/>
<path d="M144.818 100.337L147.641 99.7866L150.027 101.143C150.027 101.143 156.63 110.158 156.534 118.348C156.437 126.539 163.706 205.565 163.706 205.565L148.718 212.091L137.52 150.148L144.818 100.337Z" fill="#3F3D56"/>
</g>
<defs>
<clipPath id="clip0_643_1325">
<rect width="564" height="381" fill="white"/>
</clipPath>
</defs>
</svg>
