<svg width="56" height="38" viewBox="0 0 56 38" fill="none" xmlns="http://www.w3.org/2000/svg">
<path d="M36.5378 37.9444C33.8517 38.0554 31.2776 37.4449 28.7594 36.4458C28.1998 36.2793 27.4163 36.3903 26.8567 36.6123C19.6379 39.3876 10.9641 38.0554 5.42409 32.1164C0.21982 26.6214 -1.2911 20.0718 1.11518 12.9672C3.52145 5.86258 8.78168 1.64421 16.2243 0.31209C19.9737 -0.353969 23.6111 0.0345654 27.0806 1.5887C27.92 1.92173 28.5915 1.64421 29.3749 1.36668C36.7057 -1.18654 43.5328 -0.242959 49.5205 4.919C59.0896 13.1337 57.8025 28.3421 47.0023 35.0582C43.8126 37.0009 40.399 38.0554 36.5378 37.9444ZM32.061 33.504C38.4404 35.5577 45.7152 33.0045 49.4645 27.3985C53.2698 21.7925 52.8781 14.4103 48.5132 9.30389C44.0924 4.14193 37.1533 2.80981 32.1729 4.58597C34.9709 7.1947 37.0974 10.192 38.1047 13.9663C36.9855 13.9663 36.0342 13.9108 35.0828 13.9663C34.3554 14.0218 34.0196 13.7998 33.7398 13.1337C32.6206 10.6915 30.9978 8.58233 28.8153 6.91718C28.1998 6.47314 27.808 6.41763 27.2484 6.91718C25.0101 8.63783 23.3872 10.747 22.2121 13.2447C22.0442 13.5778 21.6525 13.9663 21.3167 13.9663C20.2535 14.0773 19.1343 14.0218 17.9591 14.0218C18.9104 10.1365 21.0929 7.1392 23.9468 4.53047C17.9031 2.36577 10.3486 5.03001 6.54329 10.5805C2.73802 16.242 3.24165 23.8462 7.66249 28.8971C11.9714 33.8371 19.1902 35.3357 23.723 33.4485C19.2462 28.2866 17.2316 24.2347 17.4555 20.6269H26.465V24.3457H22.268C22.6597 26.5104 25.9614 30.8398 27.7521 31.4504C27.9759 31.5614 28.4236 31.3949 28.7034 31.1728C30.8299 29.5632 32.5087 27.565 33.6279 25.1228C33.7398 24.9008 33.7398 24.6233 33.8517 24.2347H29.5428V20.6824H38.7762C38.1606 25.7889 35.9782 30.0072 32.061 33.504Z" fill="white"/>
</svg>
