<svg width="21" height="21" viewBox="0 0 21 21" fill="none" xmlns="http://www.w3.org/2000/svg">
<path d="M10.5 0.083313C4.74998 0.083313 0.083313 4.74998 0.083313 10.5C0.083313 16.25 4.74998 20.9166 10.5 20.9166C16.25 20.9166 20.9166 16.25 20.9166 10.5C20.9166 4.74998 16.25 0.083313 10.5 0.083313ZM10.5 3.20831C12.2291 3.20831 13.625 4.60415 13.625 6.33331C13.625 8.06248 12.2291 9.45831 10.5 9.45831C8.77081 9.45831 7.37498 8.06248 7.37498 6.33331C7.37498 4.60415 8.77081 3.20831 10.5 3.20831ZM10.5 18C7.89581 18 5.59373 16.6666 4.24998 14.6458C4.28123 12.5729 8.41665 11.4375 10.5 11.4375C12.5729 11.4375 16.7187 12.5729 16.75 14.6458C15.4062 16.6666 13.1041 18 10.5 18Z" fill="white" fill-opacity="0.87"/>
</svg>
