<svg width="13" height="11" viewBox="0 0 13 11" fill="none" xmlns="http://www.w3.org/2000/svg">
<path d="M9.08646 1.7857L11.1222 3.72397C11.208 3.80563 11.208 3.93886 11.1222 4.02051L6.19306 8.71362L4.09861 8.93495C3.81875 8.96503 3.58177 8.7394 3.61337 8.47294L3.84583 6.47881L8.775 1.7857C8.86076 1.70404 9.0007 1.70404 9.08646 1.7857ZM12.7427 1.29361L11.6413 0.24497C11.2983 -0.0816566 10.7408 -0.0816566 10.3955 0.24497L9.59653 1.00567C9.51077 1.08732 9.51077 1.22055 9.59653 1.30221L11.6323 3.24048C11.7181 3.32213 11.858 3.32213 11.9438 3.24048L12.7427 2.47978C13.0858 2.15101 13.0858 1.62024 12.7427 1.29361ZM8.66667 7.43719V9.62473H1.44444V2.74839H6.6309C6.70312 2.74839 6.77083 2.72045 6.82274 2.67318L7.72552 1.81364C7.89705 1.65032 7.77517 1.37312 7.53368 1.37312H1.08333C0.485243 1.37312 0 1.83512 0 2.40457V9.96855C0 10.538 0.485243 11 1.08333 11H9.02778C9.62587 11 10.1111 10.538 10.1111 9.96855V6.57765C10.1111 6.34772 9.81997 6.23383 9.64844 6.395L8.74566 7.25454C8.69601 7.30397 8.66667 7.36843 8.66667 7.43719Z" fill="#8BD5F8" fill-opacity="0.87"/>
</svg>
