<svg width="21" height="21" viewBox="0 0 21 21" fill="none" xmlns="http://www.w3.org/2000/svg">
<path d="M17.9375 11.4792C17.9791 11.1667 18 10.8438 18 10.5C18 10.1667 17.9791 9.83333 17.9271 9.52083L20.0416 7.875C20.2291 7.72917 20.2812 7.44792 20.1666 7.23958L18.1666 3.78125C18.0416 3.55208 17.7812 3.47917 17.5521 3.55208L15.0625 4.55208C14.5416 4.15625 13.9896 3.82292 13.375 3.57292L13 0.927083C12.9583 0.677083 12.75 0.5 12.5 0.5H8.49997C8.24997 0.5 8.05206 0.677083 8.01039 0.927083L7.63539 3.57292C7.02081 3.82292 6.45831 4.16667 5.94789 4.55208L3.45831 3.55208C3.22914 3.46875 2.96872 3.55208 2.84372 3.78125L0.854139 7.23958C0.729139 7.45833 0.770805 7.72917 0.979138 7.875L3.09372 9.52083C3.04164 9.83333 2.99997 10.1771 2.99997 10.5C2.99997 10.8229 3.02081 11.1667 3.07289 11.4792L0.958305 13.125C0.770805 13.2708 0.718722 13.5521 0.833305 13.7604L2.83331 17.2188C2.95831 17.4479 3.21872 17.5208 3.44789 17.4479L5.93747 16.4479C6.45831 16.8438 7.01039 17.1771 7.62497 17.4271L7.99997 20.0729C8.05206 20.3229 8.24997 20.5 8.49997 20.5H12.5C12.75 20.5 12.9583 20.3229 12.9896 20.0729L13.3646 17.4271C13.9791 17.1771 14.5416 16.8438 15.0521 16.4479L17.5416 17.4479C17.7708 17.5313 18.0312 17.4479 18.1562 17.2188L20.1562 13.7604C20.2812 13.5313 20.2291 13.2708 20.0312 13.125L17.9375 11.4792ZM10.5 14.25C8.43747 14.25 6.74997 12.5625 6.74997 10.5C6.74997 8.4375 8.43747 6.75 10.5 6.75C12.5625 6.75 14.25 8.4375 14.25 10.5C14.25 12.5625 12.5625 14.25 10.5 14.25Z" fill="white" fill-opacity="0.87"/>
</svg>
